<?xml version="1.0" encoding="UTF-8" standalone="no"?>
<!-- Created with Inkscape (http://www.inkscape.org/) -->

<svg
   xmlns:dc="http://purl.org/dc/elements/1.1/"
   xmlns:cc="http://creativecommons.org/ns#"
   xmlns:rdf="http://www.w3.org/1999/02/22-rdf-syntax-ns#"
   xmlns:svg="http://www.w3.org/2000/svg"
   xmlns="http://www.w3.org/2000/svg"
   xmlns:sodipodi="http://sodipodi.sourceforge.net/DTD/sodipodi-0.dtd"
   xmlns:inkscape="http://www.inkscape.org/namespaces/inkscape"
   id="svg2"
   version="1.1"
   inkscape:version="0.91 r13725"
   width="900"
   height="484"
   viewBox="0 0 900 484"
   sodipodi:docname="alexandria.svg">
  <metadata
     id="metadata8">
    <rdf:RDF>
      <cc:Work
         rdf:about="">
        <dc:format>image/svg+xml</dc:format>
        <dc:type
           rdf:resource="http://purl.org/dc/dcmitype/StillImage" />
        <dc:title></dc:title>
      </cc:Work>
    </rdf:RDF>
  </metadata>
  <defs
     id="defs6" />
  <sodipodi:namedview
     pagecolor="#ffffff"
     bordercolor="#666666"
     borderopacity="1"
     objecttolerance="10"
     gridtolerance="10"
     guidetolerance="10"
     inkscape:pageopacity="0"
     inkscape:pageshadow="2"
     inkscape:window-width="795"
     inkscape:window-height="480"
     id="namedview4"
     showgrid="false"
     inkscape:zoom="1.4044444"
     inkscape:cx="400.03016"
     inkscape:cy="224.14006"
     inkscape:window-x="0"
     inkscape:window-y="27"
     inkscape:window-maximized="0"
     inkscape:current-layer="svg2" />
  <path
     style="fill:#cd453d"
     d="m 193.41553,438.93147 c -0.34516,-0.0638 -1.41475,-0.32174 -2.37688,-0.57319 l -1.74932,-0.4572 -0.75068,-2.6768 -0.75068,-2.67681 0.0376,-20 0.0376,-20 1.62481,-5 1.62482,-5 0.61259,-8 c 0.33693,-4.4 0.86419,-9.575 1.1717,-11.5 0.3075,-1.925 1.45213,-6.425 2.54362,-10 1.09149,-3.575 2.91024,-9.65 4.04168,-13.5 1.13143,-3.85 2.43319,-7.9 2.89279,-9 0.45959,-1.1 1.55082,-4.475 2.42495,-7.5 0.87412,-3.025 2.24149,-6.77397 3.03859,-8.33104 l 1.44925,-2.83104 0,-2.26595 0,-2.26595 2.02723,-2.33742 2.02723,-2.33742 0.54748,-2.56559 c 0.30111,-1.41107 1.38202,-5.26559 2.40201,-8.56559 1.02,-3.3 3.16504,-9.825 4.76676,-14.5 1.60172,-4.675 3.58852,-9.85 4.4151,-11.5 0.82658,-1.65 2.07207,-5.25 2.76776,-8 0.69569,-2.75 2.34074,-7.29485 3.65566,-10.09967 1.31492,-2.80482 2.40484,-5.95482 2.42204,-7 0.0172,-1.04518 1.1512,-4.15033 2.52,-6.90033 l 2.48872,-5 0.5952,-4.0988 0.59521,-4.09881 -1.72892,-0.66345 -1.72892,-0.66345 -5.63628,1.92026 c -3.09995,1.05615 -10.81128,3.55107 -17.13628,5.54428 -6.325,1.99321 -13.975,4.84711 -17,6.342 l -5.5,2.71797 -7,7.1929 c -3.85,3.95609 -10.4875,10.87578 -14.75,15.37708 -4.2625,4.5013 -7.75,8.41005 -7.75,8.68611 0,0.27605 -2.5875,2.99336 -5.75,6.03846 -3.1625,3.04509 -7.50502,6.81204 -9.65004,8.37099 -2.14502,1.55895 -4.28252,2.83446 -4.75,2.83446 -0.46748,0 -0.84523,-0.3375 -0.83945,-0.75 0.006,-0.4125 2.0317,-3.45 4.50205,-6.75 2.47034,-3.3 9.72808,-11.4 16.1283,-18 6.40021,-6.6 12.29514,-12.75628 13.09984,-13.68063 l 1.46309,-1.68062 -0.61538,-0.9957 -0.61538,-0.9957 -3.23651,0.91693 c -1.78009,0.50432 -4.81152,1.66238 -6.73652,2.57347 -1.925,0.91109 -4.29285,2.04747 -5.2619,2.52529 -0.96904,0.47782 -3.82033,1.56763 -6.3362,2.42179 -2.51587,0.85416 -8.47302,3.36152 -13.2381,5.57192 -4.76509,2.21039 -9.7888,4.48188 -11.1638,5.04775 -1.375,0.56586 -3.31351,1.4464 -4.3078,1.95674 -0.99429,0.51034 -4.59429,2.31681 -8,4.01437 l -6.1922,3.08647 -4.0283,3.85959 -4.0283,3.85958 -4.31084,-0.36548 -4.31084,-0.36549 -1.64391,-1.6439 -1.6439,-1.64391 1.08229,-1.73123 1.08229,-1.73124 4.40076,-1.14869 4.40075,-1.14869 13,-6.46038 c 7.15,-3.55321 14.575,-7.15384 16.5,-8.00139 1.925,-0.84756 8.225,-3.5685 14,-6.04653 5.775,-2.47804 12.75,-5.31807 15.5,-6.31117 2.75,-0.99311 6.125,-2.38282 7.5,-3.08824 1.375,-0.70542 2.8363,-1.28536 3.24733,-1.28875 0.41103,-0.003 3.60461,-1.35616 7.09684,-3.00616 3.49224,-1.65 6.75594,-3.01618 7.25267,-3.03596 0.49674,-0.0198 2.04454,-1.03228 3.43957,-2.25 1.39503,-1.21772 4.95541,-5.45636 7.91195,-9.4192 2.95655,-3.96284 5.97767,-7.43621 6.71359,-7.71861 0.73593,-0.2824 1.33805,-0.96057 1.33805,-1.50704 0,-0.54646 3.38945,-5.39808 7.53211,-10.78138 4.14266,-5.3833 9.91573,-12.93781 12.82905,-16.78781 2.91331,-3.85 7.96136,-10.86456 11.21789,-15.58791 3.25652,-4.72335 6.94092,-9.89835 8.18755,-11.5 1.24663,-1.60165 4.28413,-5.81247 6.75,-9.35737 2.46587,-3.54491 4.4834,-6.76219 4.4834,-7.14951 0,-0.38733 1.56102,-3.0239 3.46894,-5.85906 1.90792,-2.83515 4.39696,-6.36787 5.5312,-7.85049 1.13424,-1.48261 4.11828,-5.84566 6.6312,-9.69566 2.51291,-3.85 5.59167,-9.025 6.84168,-11.5 1.25001,-2.475 3.76105,-7.199997 5.58009,-10.499997 1.81904,-3.3 3.63148,-6.225 4.02765,-6.5 0.39617,-0.275 1.94782,-3.200002 3.44812,-6.500002 1.5003,-3.3 4.84512,-10.5 7.43295,-16 l 4.70514,-10 2.17669,-7.18875 2.1767,-7.18875 1.56125,-1.56125 1.56125,-1.56125 1.86955,0 1.86956,0 0.58633,0.9487 0.58633,0.94871 -1.09365,4.80129 c -0.60151,2.64072 -1.44131,5.4763 -1.86623,6.3013 -0.42492,0.825 -1.59064,4.2 -2.59049,7.5 -0.99985,3.3 -2.19734,6.4275 -2.66109,6.95 -0.46374,0.5225 -0.84317,2.10987 -0.84317,3.52749 l 0,2.5775 -1.55184,2.21555 c -0.85351,1.21856 -2.24732,4.58119 -3.09736,7.47251 -0.85004,2.89132 -2.11495,5.931952 -2.8109,6.756952 -0.69596,0.825 -1.55749,3.04547 -1.91451,4.93438 l -0.64914,3.43439 -1.33827,1.56561 c -0.73605,0.86109 -2.9807,5.678217 -4.98812,10.704727 -2.00742,5.02651 -3.64986,9.62374 -3.64986,10.21607 0,0.59233 -0.65463,2.55473 -1.45473,4.36089 -0.80009,1.80616 -3.08643,7.55893 -5.08074,12.78393 -1.99431,5.225 -4.41917,11.3 -5.38857,13.5 -0.96941,2.2 -2.79328,6.7 -4.05306,10 -1.25977,3.3 -4.08543,10.49189 -6.27923,15.98198 -2.1938,5.49009 -4.06774,10.44009 -4.16429,11 -0.0966,0.55991 -0.82306,2.14302 -1.61444,3.51802 -0.79138,1.375 -2.47908,5.425 -3.75044,9 -1.27135,3.575 -2.56988,7.52664 -2.88561,8.78142 l -0.57406,2.28142 4.37259,-0.67887 4.37258,-0.67887 4.27096,-3.03713 4.27097,-3.03712 3.72903,2.12545 3.72904,2.12545 0.3335,1.61198 0.33351,1.61199 -2.57621,2.57621 -2.5762,2.5762 -6.2573,-0.0714 -6.2573,-0.0714 -5.48568,1.72353 -5.48568,1.72353 -2.24833,3.96882 c -1.23659,2.18284 -2.98879,6.21881 -3.8938,8.96881 -0.905,2.75 -2.66543,7.25 -3.91207,10 -1.24664,2.75 -3.47942,8.6 -4.96174,13 -1.48232,4.4 -3.61047,10.925 -4.72922,14.5 -1.11875,3.575 -3.10339,8.63546 -4.4103,11.24547 -1.30691,2.61001 -2.29603,5.08501 -2.19803,5.5 0.098,0.41499 -0.39867,2.77953 -1.10369,5.25453 -0.70501,2.475 -2.35951,6.33954 -3.67665,8.58786 l -2.39481,4.08784 0,2.16739 0,2.16739 -4.0387,9.70402 c -2.22129,5.3372 -4.29149,11.29459 -4.60045,13.23864 -0.30895,1.94405 -1.23109,4.82901 -2.04918,6.41103 l -1.48745,2.8764 -0.43791,4.71443 -0.43792,4.71442 -1.9742,5.40117 -1.97419,5.40116 0,3.29623 0,3.29624 -1.49336,3.57411 -1.49336,3.57412 0.54553,0.88269 0.54554,0.88269 -1.75144,3.69087 -1.75143,3.69087 0.13711,1.82021 0.13711,1.8202 -0.68785,-10e-4 -0.68785,-10e-4 0.23704,12.18412 0.23705,12.18413 0.82539,0.56703 c 0.45397,0.31186 1.64182,3.20265 2.63967,6.42398 l 1.81428,5.85696 -0.49215,6.87843 -0.49215,6.87844 -1.25701,1.51461 c -0.69136,0.83303 -1.53941,1.4624 -1.88456,1.3986 z m 10.28953,-215.884 c 0.77941,0 3.59191,-0.94993 6.25,-2.11096 2.6581,-1.16103 7.30791,-2.66966 10.33291,-3.35251 3.025,-0.68286 9.05505,-2.22824 13.40011,-3.4342 4.34506,-1.20595 8.72725,-2.63531 9.73819,-3.17635 l 1.83809,-0.98371 0.64611,-2.72113 c 0.35537,-1.49663 1.18072,-3.39614 1.83412,-4.22114 0.65341,-0.825 1.7574,-3.525 2.45332,-6 0.69592,-2.475 2.35088,-6.87247 3.67769,-9.77215 l 2.41237,-5.27216 0,-2.97784 0,-2.97785 0.92245,0 0.92245,0 1.14722,-3.75 c 0.63097,-2.0625 1.52831,-4.65 1.99408,-5.75 0.46578,-1.1 1.07369,-2.9 1.35093,-4 0.27723,-1.1 1.90456,-5.375 3.61628,-9.5 1.71172,-4.125 3.77245,-8.91801 4.57941,-10.65113 0.80695,-1.73312 1.46718,-3.46022 1.46718,-3.838 0,-0.37778 1.53695,-4.18253 3.41546,-8.45501 l 3.41545,-7.76815 0.61217,-3.85191 0.61216,-3.85191 0.8931,-0.55196 c 0.4912,-0.30358 1.2189,-1.85009 1.61711,-3.43668 l 0.72402,-2.88472 -1.89474,1.98248 c -1.0421,1.09037 -2.47012,2.843 -3.17338,3.89474 -0.70325,1.05174 -2.05325,3.17156 -3,4.71071 -0.94674,1.53915 -3.62912,5.36415 -5.96084,8.5 -2.33172,3.13585 -4.24422,6.08678 -4.25,6.55764 -0.006,0.47085 -1.36051,2.56061 -3.01051,4.6439 -1.65,2.08329 -3.00055,4.17305 -3.00122,4.6439 -6.7e-4,0.47086 -1.17819,2.2061 -2.61669,3.8561 -1.43851,1.65 -3.80046,4.74802 -5.24878,6.88448 -1.44832,2.13647 -3.39323,5.06147 -4.32202,6.5 -0.92879,1.43854 -2.07374,3.06552 -2.54434,3.61552 -0.4706,0.55 -3.04206,4.15 -5.71435,8 -2.6723,3.85 -6.8905,9.925 -9.37379,13.5 -2.48328,3.575 -5.03417,6.95 -5.66863,7.5 -0.63447,0.55 -3.57322,4.3358 -6.53058,8.41288 -2.95735,4.07708 -6.46851,8.57708 -7.80257,10 -1.33407,1.42292 -3.49466,4.26568 -4.8013,6.31725 -1.30665,2.05157 -2.37573,4.18907 -2.37573,4.75 l 0,1.01987 1.41709,0 z m 212.32233,140.8013 -1.26057,1.04618 -1.73943,-0.97343 -1.73942,-0.97343 0,-5.82458 0,-5.82459 1.39542,-3.95503 c 0.76747,-2.17526 1.61333,-5.49434 1.87968,-7.37572 0.26635,-1.88139 1.41322,-6.1207 2.5486,-9.4207 1.13539,-3.3 3.93411,-11.175 6.21939,-17.5 2.28528,-6.325 4.80283,-13.24432 5.59456,-15.37627 0.79173,-2.13195 2.99715,-6.8862 4.90093,-10.565 1.90378,-3.67879 3.46142,-7.02552 3.46142,-7.43716 0,-0.41164 2.31907,-5.5574 5.15349,-11.43501 l 5.15348,-10.68656 0.37044,-3.21001 0.37043,-3.21002 -1.89722,-4.28998 c -1.04347,-2.3595 -2.40086,-6.13093 -3.01642,-8.38098 l -1.1192,-4.09099 -2.28942,-3.40901 -2.28943,-3.40901 -3.02132,-0.29868 -3.02133,-0.29869 -2.69386,2.11899 -2.69386,2.119 -4.18381,7.17969 c -2.3011,3.94883 -4.71823,7.85469 -5.3714,8.67969 l -1.18759,1.5 -0.50555,4 -0.50556,4 -2.04526,4.5 c -1.1249,2.475 -2.34361,5.53364 -2.70824,6.79697 l -0.66296,2.29698 -4.94375,5.94051 -4.94374,5.94051 -2.72396,0.6504 c -1.49818,0.35772 -3.28967,1.09612 -3.98109,1.64088 l -1.25712,0.99047 -6.24288,-0.68242 c -3.43358,-0.37533 -7.99492,-1.14282 -10.13632,-1.70553 -2.1414,-0.56271 -6.76517,-2.33839 -10.27504,-3.94594 -3.50988,-1.60756 -6.85175,-2.92283 -7.42638,-2.92283 -0.57463,0 -2.92586,1.25161 -5.22495,2.78137 -2.2991,1.52975 -5.78713,3.32975 -7.75118,4 -1.96405,0.67024 -4.96722,1.21863 -6.67371,1.21863 -1.70649,0 -5.49954,-0.47934 -8.429,-1.06519 -2.92946,-0.58585 -7.77988,-1.57958 -10.7787,-2.20827 l -5.45242,-1.14309 -3.24274,-2.84716 -3.24275,-2.84717 -1.61152,-5.54345 c -0.88634,-3.04889 -1.74281,-7.00656 -1.90328,-8.79481 -0.16046,-1.78825 -0.68377,-3.88125 -1.16291,-4.65111 l -0.87116,-1.39975 0.15319,-14.59932 0.15319,-14.59931 2.13328,-11.30385 2.13328,-11.30385 2.00227,-4.59684 c 1.10124,-2.52826 3.74356,-8.19683 5.8718,-12.59683 2.12825,-4.4 4.18404,-9.125 4.56842,-10.5 0.38439,-1.375 1.53698,-3.57319 2.56132,-4.88486 l 1.86244,-2.38486 0,-1.95485 0,-1.95484 2.25,-1.83601 2.25,-1.836 -1.74465,-0.67922 -1.74465,-0.67923 2.99465,-5.45666 2.99465,-5.45666 0,-1.7384 0,-1.73841 1.20454,-1.20454 1.20453,-1.20453 0.54547,-4.71892 0.54546,-4.71892 2.39804,-1.19256 2.39804,-1.19257 1.84448,1.1519 1.84449,1.15189 -0.66395,2.01413 c -0.36516,1.10776 -0.60679,2.90746 -0.53695,3.99931 l 0.12698,1.98519 1.00838,0.33612 1.00837,0.33613 -0.91282,1.67868 c -0.50205,0.92328 -2.13375,4.51675 -3.62599,7.98549 l -2.71318,6.30681 -1.58795,1.19319 -1.58794,1.1932 -0.3282,1.89963 c -0.1805,1.04479 -0.968,2.53943 -1.75,3.32142 l -1.4218,1.42181 0,2.40813 0,2.40813 -4.56645,10.27044 c -2.51154,5.64874 -5.93062,13.87044 -7.59794,18.27044 -1.66732,4.4 -3.62932,9.1384 -4.36,10.52978 l -1.32851,2.52978 -0.20776,6.47022 c -0.11427,3.55862 -0.21601,11.64522 -0.22608,17.97022 l -0.0183,11.5 0.95284,6.5 0.95283,6.5 2.5344,4.5 2.53439,4.5 4.9153,1.82607 c 2.70342,1.00434 6.87972,2.19344 9.28067,2.64245 l 4.36537,0.81638 5.57938,-1.5872 5.57937,-1.58719 1.80526,-1.80526 1.80523,-1.80525 0,-1.44098 c 0,-0.79254 -0.39597,-1.68571 -0.87993,-1.98481 -0.48396,-0.2991 -1.56445,-2.68816 -2.40109,-5.30902 -0.83664,-2.62085 -1.80658,-6.13728 -2.1554,-7.81428 -0.34883,-1.677 -0.65758,-5.502 -0.68611,-8.5 l -0.0519,-5.45091 1.58104,-3 c 0.86957,-1.65 1.58381,-3.51997 1.5872,-4.1555 0.003,-0.63552 1.01866,-3.10751 2.25616,-5.49329 l 2.25,-4.3378 4.63209,-4.68641 4.63208,-4.68641 3.92307,-1.05637 3.92306,-1.05637 3.34318,0.95881 c 1.83875,0.52734 4.8267,1.97534 6.63989,3.21776 l 3.29672,2.25894 1.05496,2.31537 1.05495,2.31538 0,4.91902 0,4.91902 -1.40389,3.28392 c -0.77214,1.80616 -1.96917,5.19643 -2.66006,7.53393 l -1.25617,4.25 -0.83994,0 -0.83994,0 0,1.28272 c 0,0.7055 -1.6875,4.34617 -3.75,8.09038 -2.0625,3.74421 -4.30587,7.77949 -4.98526,8.96728 -0.67939,1.18779 -1.24189,2.89202 -1.25,3.78718 l -0.0147,1.62755 1.25,0.98944 c 0.6875,0.54419 3.84547,1.94596 7.01772,3.11504 l 5.76772,2.1256 4.36716,0.16518 4.36716,0.16519 3.67024,-1.90778 3.67024,-1.90778 1.85307,-3.5 c 1.01919,-1.925 2.79439,-5.42636 3.94488,-7.78079 1.1505,-2.35444 2.09181,-4.83796 2.09181,-5.51894 0,-0.68098 1.34616,-4.44209 2.99146,-8.35803 1.6453,-3.91594 4.5703,-9.91314 6.5,-13.32713 1.9297,-3.41398 3.50854,-6.38296 3.50854,-6.59772 0,-0.21476 1.6875,-1.96698 3.75,-3.89381 l 3.75,-3.50334 3.96049,-1.10534 3.96049,-1.10535 3.65411,1.0948 3.65411,1.0948 2.7903,2.19485 2.79029,2.19484 3.37539,7.30558 3.37538,7.30558 0.98272,0 0.98271,0 1.9226,-4.25 c 1.05743,-2.3375 2.89953,-6.95 4.09357,-10.25 1.19403,-3.3 2.76387,-7.35 3.48852,-9 0.72465,-1.65 3.14756,-7.275 5.38424,-12.5 l 4.0667,-9.5 0.88718,-4.5 0.88718,-4.5 2.69532,-5.75 2.69531,-5.75 1.35931,0 1.3593,0 0.61892,1.95002 0.61891,1.95002 -1.55152,3.00032 c -0.85335,1.65018 -1.55154,3.63852 -1.55154,4.41853 0,0.78002 -1.50418,5.86487 -3.34261,11.29966 -1.83844,5.4348 -4.14393,12.13145 -5.1233,14.88145 -0.97938,2.75 -2.59567,6.86374 -3.59175,9.14164 -0.99608,2.27791 -2.13431,5.87791 -2.5294,8 l -0.71833,3.85836 -2.34731,3.73013 c -1.29101,2.05157 -2.3473,4.15157 -2.3473,4.66666 0,0.5151 -0.47165,1.09376 -1.04811,1.28591 l -1.0481,0.34937 -0.57436,5.56505 -0.57437,5.56505 2.75733,2.16892 2.75733,2.16891 2.4971,0 2.49711,0 3.13373,-1.93675 3.13374,-1.93676 4.88674,-9.31324 4.88675,-9.31325 5.57779,-7.43824 c 3.06778,-4.09103 8.28668,-10.17891 11.59755,-13.52862 3.31087,-3.34971 7.76664,-7.42751 9.90171,-9.06176 2.13507,-1.63426 6.13028,-3.98388 8.87825,-5.22138 l 4.9963,-2.25 4.30665,0 4.30666,0 2.69354,1.02408 2.69354,1.02408 -0.53966,4.02345 -0.53966,4.02344 3.41122,5.17967 3.41122,5.17967 0,8.71379 0,8.71379 0.86635,0.53543 0.86636,0.53544 1.77186,-1.95789 1.77187,-1.9579 0.78823,-8.64796 0.78822,-8.64797 3.0795,-6.25534 3.07949,-6.25535 5.07194,-4.61571 5.07194,-4.61571 2.33326,-0.58561 2.33325,-0.58561 4.41181,1.95156 4.41182,1.95155 1.29837,3.13455 1.29837,3.13455 1.18251,0 1.18252,0 3.37059,-3.47757 3.37059,-3.47757 4.57557,-1.46357 4.57558,-1.46358 2.86675,0.36591 2.86674,0.3659 2.88326,2.76233 2.88325,2.76233 0,2.78449 c 0,1.53147 0.74441,6.17228 1.65425,10.31291 l 1.65424,7.52842 0.72444,0 c 0.39843,0 1.27444,-1.4625 1.94667,-3.25 0.67223,-1.7875 1.59258,-4.15 2.04521,-5.25 0.45263,-1.1 2.8046,-6.275 5.2266,-11.5 l 4.40364,-9.5 1.80852,-1.5 c 0.99469,-0.825 3.6598,-2.23204 5.92248,-3.12675 l 4.11395,-1.62675 0.26861,-8.37325 c 0.14774,-4.60529 0.56901,-9.04825 0.93617,-9.87325 0.36715,-0.825 1.14627,-4.1924 1.73138,-7.48312 l 1.06384,-5.98311 2.59841,-0.90662 2.59841,-0.90661 3.63944,0.68276 3.63943,0.68277 1.08207,2.02186 c 0.59514,1.11203 1.32771,3.00516 1.62793,4.20697 0.30023,1.2018 0.56722,6.4601 0.59331,11.6851 l 0.0474,9.5 -1.2189,4.4754 c -0.67039,2.46146 -1.59041,4.71146 -2.04449,5 l -0.82558,0.5246 -0.691,6.5 c -0.38005,3.575 -0.73348,7.0377 -0.7854,7.69489 -0.0519,0.65718 0.9931,2.79536 2.32226,4.7515 l 2.41667,3.55662 1.68745,0.54603 1.68745,0.54603 2.08265,-1.29753 2.08265,-1.29754 1.9799,-5.28751 1.9799,-5.28752 0,-2.75104 0,-2.75105 -2,-3.92288 c -1.1,-2.15759 -2,-4.67263 -2,-5.589 l 0,-1.66611 1.45201,-1.20506 1.45201,-1.20507 2.29799,0.83262 2.29799,0.83262 5.44268,0 5.44269,0 2.15306,3.16899 2.15307,3.169 0.58876,8.331 c 0.32381,4.58206 0.89137,9.11851 1.26124,10.08101 l 0.67248,1.75 1.86993,0 1.87,0 1.4447,-2.25 c 0.7947,-1.2375 1.7738,-3.825 2.176,-5.75 0.4021,-1.925 0.7749,-7.59282 0.8283,-12.59514 l 0.097,-9.09515 1.3724,-1.65485 1.3725,-1.65486 3.8545,0 3.8545,0 1.5496,2.36502 1.5496,2.36502 -1.1802,2.88498 c -0.6491,1.58674 -1.3535,3.55998 -1.5652,4.38498 -0.2117,0.825 -0.6416,3.11163 -0.9554,5.0814 l -0.5704,3.5814 2.6494,5.60047 2.6495,5.60047 3.4944,3.06813 3.4944,3.06813 1.93,0 1.93,0 1.0352,-1.93426 1.0352,-1.93426 0.076,-3.31574 c 0.042,-1.82366 0.6163,-4.66574 1.2767,-6.31574 0.6603,-1.65 2.0886,-4.54306 3.1739,-6.42902 1.0853,-1.88596 4.8983,-6.5536 8.4733,-10.37254 3.575,-3.81893 8.075,-7.99705 10,-9.28471 1.925,-1.28767 5.525,-3.77566 8,-5.52887 2.475,-1.75322 5.8959,-3.77275 7.602,-4.48786 l 3.1021,-1.30018 7.8979,0.23786 7.898,0.23786 3,1.50377 3,1.50377 -0.2794,5.93936 -0.2794,5.93936 -0.9706,0.9706 -0.9706,0.9706 0,4.24098 0,4.24099 -0.93,0.57478 -0.93,0.57478 -0.6712,5.3722 -0.6712,5.3722 -2.8696,3.14177 c -1.5782,1.72797 -4.8986,6.27838 -7.3786,10.11203 l -4.509,6.97027 -0.9118,0 -0.9117,0 -0.6371,2.5383 -0.6371,2.53831 1.1281,3.76512 1.128,3.76512 3.7183,5.40172 3.7182,5.40172 4.3397,2.29485 4.3396,2.29486 5.0927,-0.028 5.0927,-0.028 6.4393,-2.88363 6.4393,-2.88364 4.7325,-4.07642 4.7324,-4.07642 2.6853,-5.67626 2.6853,-5.67627 -0.6316,-4.76145 -0.6317,-4.76146 1.004,-0.62047 1.0039,-0.62046 2.1053,1.12674 2.1054,1.12673 1.4153,3.38739 1.4153,3.38739 0,4.06424 0,4.06424 -1.509,3.61155 c -0.8299,1.98636 -2.5174,4.60237 -3.75,5.81336 -1.2325,1.21099 -3.6277,3.73384 -5.3226,5.60633 l -3.0816,3.40452 -7.4184,3.65651 c -4.0801,2.01108 -8.8763,4.2013 -10.6583,4.86714 l -3.2399,1.21063 -6.2601,-0.4306 -6.2601,-0.43059 -5.7184,-2.74424 -5.7184,-2.74423 -5.9157,-7.1152 -5.9157,-7.1152 -1.569,-5.64343 -1.569,-5.64343 -3.9467,-1.91972 -3.9468,-1.91971 -2.7278,-4.51397 -2.7278,-4.51396 -1.6127,-8.75 -1.6127,-8.75 -0.6802,0 c -0.3741,0 -0.9752,1.4625 -1.3359,3.25 -0.3606,1.7875 -1.3363,5.275 -2.1681,7.75 -0.8318,2.475 -1.9225,5.28139 -2.4237,6.23643 l -0.9114,1.73642 0,3.47839 0,3.47838 -1.9342,1.03519 c -1.0639,0.56935 -3.0418,1.03518 -4.3954,1.03518 l -2.4612,0 -5.9231,-2.69321 -5.9232,-2.69322 -2.4314,-3.27925 -2.4315,-3.27926 -1.15,-0.0275 -1.15,-0.0275 -3.627,3.62701 -3.627,3.62701 -4.7215,-0.53218 -4.72146,-0.53218 -3.32542,-3.84483 -3.32541,-3.84483 -0.55109,-2.75 -0.55109,-2.75 -1.125,0.004 -1.125,0.004 -1.75452,4.24625 -1.75453,4.24625 -4.07328,4.75 -4.07328,4.75 -4.27617,0 -4.27617,0 -2.6138,-2.42238 c -1.43759,-1.33231 -3.51178,-2.7074 -4.60931,-3.05574 l -1.99552,-0.63335 -1.40114,3.30573 -1.40113,3.30574 -3.60892,3.25 -3.60893,3.25 -1.7623,0 c -0.96926,0 -4.13219,-1.19906 -7.02874,-2.66458 -2.89654,-1.46551 -5.41041,-2.47801 -5.58638,-2.25 -0.17597,0.22802 -1.544,2.55208 -3.04007,5.16458 l -2.72012,4.75 -2.0075,0 c -1.10413,0 -3.30541,-0.67117 -4.89173,-1.49149 l -2.88422,-1.49149 -3.48377,-7.25851 -3.48378,-7.25851 -0.67527,-6.20468 -0.67527,-6.20468 -1.28544,-1.06681 -1.28544,-1.06682 -2.73898,1.04136 -2.73898,1.04136 -2.83689,3.03689 -2.83688,3.0369 -2.41933,5.19324 -2.41933,5.19324 -0.68358,6.5 c -0.37597,3.575 -1.18834,8.21835 -1.80527,10.31855 l -1.12168,3.81855 -1.97578,1.38389 -1.97578,1.38389 -1.76742,-0.94589 c -0.97208,-0.52024 -2.5067,-1.68517 -3.41026,-2.58874 l -1.64285,-1.64285 0.63477,-4.1137 c 0.34912,-2.26253 1.09486,-5.59636 1.6572,-7.40849 0.56234,-1.81214 1.36364,-5.80914 1.78067,-8.88224 l 0.75824,-5.58745 -0.92202,-4.32305 -0.92202,-4.32305 -2.0224,-0.64188 -2.0224,-0.64189 -3.02931,2.84717 -3.02931,2.84718 -1.5411,3.5 c -0.8476,1.925 -1.66016,4.175 -1.8057,5 -0.14553,0.825 -0.51184,3.3 -0.81402,5.5 -0.30217,2.2 -0.81373,6.33979 -1.13679,9.19954 l -0.58737,5.19953 -2.22168,3.30047 -2.22168,3.30046 -2.73887,1.31712 c -1.50637,0.72442 -4.41457,1.56993 -6.46267,1.87891 l -3.7238,0.56178 -3.5,3.82444 -3.5,3.82443 -6.21987,2.54666 -6.21987,2.54666 -3.94722,0 -3.94723,0 -4.49796,-1.92805 -4.49797,-1.92806 -2.58494,-3.80408 -2.58494,-3.80408 0,-4.20276 0,-4.20277 1.09593,-2.8151 c 0.60276,-1.54831 1.73872,-5.24164 2.52436,-8.20741 l 1.42843,-5.39231 -0.61753,-0.60769 -0.61753,-0.60769 -3.39831,4 c -1.86907,2.2 -3.65747,4.7875 -3.97422,5.75 l -0.57591,1.75 -0.93261,0 -0.93261,0 0,1.38779 c 0,0.76328 -1.575,3.67743 -3.5,6.47589 -1.925,2.79846 -3.5,5.52484 -3.5,6.05864 0,0.53379 -1.53277,3.58214 -3.40616,6.7741 l -3.40616,5.80358 -3.30186,2.5 c -1.81602,1.375 -4.18764,3.00832 -5.27026,3.6296 l -1.96839,1.1296 -3.04361,-0.8729 c -1.67398,-0.48009 -4.96469,-1.77591 -7.31268,-2.8796 -2.348,-1.10368 -4.91603,-2.0067 -5.70674,-2.0067 l -1.43766,0 -1.57324,3.15364 c -0.86528,1.73394 -1.57324,3.61101 -1.57324,4.1707 0,0.55969 -0.58188,1.72805 -1.29306,2.59636 -0.71118,0.86831 -1.88797,3.37874 -2.61509,5.57874 -0.72712,2.2 -1.91094,5.35 -2.63071,7 -0.71976,1.65 -2.69297,6.22543 -4.3849,10.16761 -1.69193,3.94219 -3.07624,7.47272 -3.07624,7.84563 0,0.37291 -0.90977,1.95567 -2.02171,3.51725 -1.11194,1.56158 -1.92098,3.20605 -1.79786,3.65437 0.12312,0.44833 -0.76711,2.70971 -1.97829,5.0253 -1.21118,2.31559 -2.20214,4.91721 -2.20214,5.78139 l 0,1.57122 -1.5,0.5756 -1.5,0.57561 0,2.8555 0,2.85549 -1.90864,5.28752 c -1.04976,2.90813 -2.45582,7.76251 -3.12459,10.78751 -0.66878,3.025 -1.60989,6.80465 -2.09136,8.39922 -0.48148,1.59458 -0.87541,4.57698 -0.87541,6.62756 l 0,3.72833 -1.26058,1.04619 z m -57.27255,-105.8013 1.42622,0 3.80346,-5.7278 3.80345,-5.72781 2.83658,-7.02219 2.83659,-7.0222 0.53355,-5.05844 0.53354,-5.05844 -1.62813,-1.62813 -1.62814,-1.62814 -4.25255,1.44899 -4.25255,1.44899 -2.73478,2.34993 -2.73479,2.34993 -2.18351,4.88765 -2.18351,4.88766 -0.0388,6.5 -0.0388,6.5 2.238,4.25 2.23801,4.25 1.42622,0 z m 162.63309,-8.06339 3.59996,0.0634 4.15004,-3.00627 4.15004,-3.00627 0,-1.06045 c 0,-0.58325 -1.08075,-2.49293 -2.40167,-4.24373 -1.32093,-1.7508 -3.12093,-4.92574 -4,-7.0554 l -1.59833,-3.87214 0,-3.66778 0,-3.66777 1.5,-5.75889 c 0.825,-3.16739 1.5,-5.96193 1.5,-6.2101 0,-0.24817 -0.38429,-0.45121 -0.85398,-0.45121 -0.46968,0 -2.14716,1.19848 -3.72771,2.66329 -1.58056,1.46481 -4.05202,4.52124 -5.49213,6.79206 l -2.61839,4.12876 -2.11754,6.55453 c -1.16465,3.60499 -2.40717,8.36573 -2.76116,10.57943 l -0.64361,4.0249 1.78694,2.72721 1.78693,2.7272 2.07032,0.83792 c 1.13868,0.46086 3.69031,0.86645 5.67029,0.90131 z m 119.54697,-33.11385 1.64111,-0.32276 1.99737,-2.67786 1.99737,-2.67786 0.10861,-8.32214 0.10861,-8.32214 -1.11895,0 c -0.61542,0 -2.49107,1.05156 -4.1681,2.3368 l -3.04915,2.3368 -0.76668,5.1632 c -0.42167,2.83976 -0.6507,5.78275 -0.50895,6.53997 0.14175,0.75722 0.67621,2.47746 1.18769,3.82276 l 0.92997,2.446 1.6411,-0.32277 z m 121.03284,-2.82276 c 0.2033,0 0.78,-1.07914 1.2815,-2.39809 0.5015,-1.31894 1.1896,-4.26077 1.5291,-6.5374 0.3396,-2.27662 1.7415,-7.58279 3.1153,-11.79149 1.3739,-4.20869 3.8467,-10.1098 5.4952,-13.11357 l 2.9972,-5.4614 -0.6028,-1.571 -0.6029,-1.571 -0.6962,0.99233 c -0.3829,0.54578 -1.9329,1.53565 -3.4444,2.19971 -1.5115,0.66406 -4.7312,3.03526 -7.1549,5.26934 l -4.4067,4.06196 -1.7008,3.58427 -1.7009,3.58428 0.085,6.04859 0.085,6.0486 1.1471,3.57744 c 0.6308,1.96758 1.8349,4.36493 2.6756,5.32743 0.8407,0.9625 1.6949,1.75 1.8983,1.75 z m 13.0777,-11 c 0.4376,0 1.9773,-1.82233 3.4215,-4.04962 l 2.6258,-4.04963 1.7499,-6.46473 1.7499,-6.46474 -0.6091,-0.60918 -0.6092,-0.60918 -1.5431,0.59216 -1.5432,0.59215 -0.01,2.28139 -0.01,2.28138 -1.4938,2.86431 c -0.8216,1.57537 -1.4938,3.62287 -1.4938,4.55 0,0.92713 -0.3919,2.11319 -0.8709,2.63569 -0.479,0.5225 -1.1626,2.1875 -1.5191,3.7 l -0.6481,2.75 0.7956,0 z m -90.19845,-4 c 0.24254,0 0.44098,-0.70156 0.44098,-1.55902 l 0,-1.55901 -1.01631,0.62811 -1.01631,0.62812 0.57533,0.9309 c 0.31643,0.51199 0.77377,0.9309 1.01631,0.9309 z m 22.94095,-15 c 0.275,0 0.5,-0.225 0.5,-0.5 0,-0.275 -0.225,-0.5 -0.5,-0.5 -0.275,0 -0.5,0.225 -0.5,0.5 0,0.275 0.225,0.5 0.5,0.5 z m -52.99997,-5 c 0.275,0 0.5,-0.225 0.5,-0.5 0,-0.275 -0.225,-0.5 -0.5,-0.5 -0.275,0 -0.5,0.225 -0.5,0.5 0,0.275 0.225,0.5 0.5,0.5 z m 0.57672,-2.70777 0.76118,-0.79223 0.33105,-6 0.33105,-6 -1,-0.24422 -1,-0.24421 -0.0922,7.03645 -0.0922,7.03645 0.76119,-0.79224 z M 338.28797,145.04747 c 0.55,0 1,-0.45 1,-1 0,-0.55 -0.45,-1 -1,-1 -0.55,0 -1,0.45 -1,1 0,0.55 0.45,1 1,1 z m -246.71873,170.77218 -5.21873,0.94342 -2.28127,-1.13733 -2.28127,-1.13734 0,-2.43884 0,-2.43884 4,-0.67849 c 2.2,-0.37317 8.15798,-1.18249 13.23995,-1.79848 l 9.23994,-1.11999 2.51005,-1.14366 c 1.38053,-0.62901 2.51006,-1.52143 2.51006,-1.98315 l 0,-0.83948 1.5,0 1.5,0 0,0.92857 c 0,0.51072 -0.70714,1.63572 -1.57143,2.5 l -1.57143,1.57143 -1.77358,0 -1.77358,0 -1.7263,1.90753 -1.72629,1.90753 -4.67869,2.00685 c -2.57328,1.10377 -7.02713,2.43139 -9.89743,2.95027 z m 28.74163,-14.12676 -3.31007,0.66201 2.27839,-3.08168 2.27838,-3.08168 5.00646,-2.59744 c 2.75355,-1.4286 5.11544,-2.47351 5.24864,-2.32204 0.1332,0.15148 -0.12337,1.2406 -0.57014,2.42028 l -0.81233,2.14486 -3.40463,2.59684 -3.40462,2.59683 -3.31008,0.66202 z M 710.28874,156.04747 c -0.585,0 -1.31,-0.64227 -1.6112,-1.42727 -0.3013,-0.785 -0.3996,-2.4677 -0.2186,-3.73933 l 0.329,-2.31206 4.3771,-2.28773 4.377,-2.28774 1.873,0.59445 1.8729,0.59446 0,1.46779 c 0,0.80729 -0.7669,2.63836 -1.7044,4.06905 l -1.7044,2.60124 -3.2634,1.36357 c -1.795,0.74996 -3.7421,1.36357 -4.327,1.36357 z m -367.50077,-19 c -0.275,0 -0.5,-0.225 -0.5,-0.5 0,-0.275 0.225,-0.5 0.5,-0.5 0.275,0 0.5,0.225 0.5,0.5 0,0.275 -0.225,0.5 -0.5,0.5 z"
     id="path3342"
     inkscape:connector-curvature="0"
     inkscape:export-xdpi="107.3559"
     inkscape:export-ydpi="107.3559" />
</svg>
