<?xml version="1.0" encoding="UTF-8" standalone="no"?>
<!-- Created with Inkscape (http://www.inkscape.org/) -->

<svg
   xmlns:dc="http://purl.org/dc/elements/1.1/"
   xmlns:cc="http://creativecommons.org/ns#"
   xmlns:rdf="http://www.w3.org/1999/02/22-rdf-syntax-ns#"
   xmlns:svg="http://www.w3.org/2000/svg"
   xmlns="http://www.w3.org/2000/svg"
   xmlns:sodipodi="http://sodipodi.sourceforge.net/DTD/sodipodi-0.dtd"
   xmlns:inkscape="http://www.inkscape.org/namespaces/inkscape"
   id="svg2"
   version="1.1"
   inkscape:version="0.91 r13725"
   width="900"
   height="484"
   viewBox="0 0 900 484"
   sodipodi:docname="alexandria_simplified.svg">
  <metadata
     id="metadata8">
    <rdf:RDF>
      <cc:Work
         rdf:about="">
        <dc:format>image/svg+xml</dc:format>
        <dc:type
           rdf:resource="http://purl.org/dc/dcmitype/StillImage" />
        <dc:title></dc:title>
      </cc:Work>
    </rdf:RDF>
  </metadata>
  <defs
     id="defs6" />
  <sodipodi:namedview
     pagecolor="#ffffff"
     bordercolor="#666666"
     borderopacity="1"
     objecttolerance="10"
     gridtolerance="10"
     guidetolerance="10"
     inkscape:pageopacity="0"
     inkscape:pageshadow="2"
     inkscape:window-width="1920"
     inkscape:window-height="1023"
     id="namedview4"
     showgrid="false"
     inkscape:zoom="1.4044444"
     inkscape:cx="481.95526"
     inkscape:cy="213.26712"
     inkscape:window-x="0"
     inkscape:window-y="27"
     inkscape:window-maximized="1"
     inkscape:current-layer="svg2" />
  <path
     style="fill:#cd453d"
     d="m 188.53865,435.22428 c -1.72639,-7.30346 -0.72717,-15.18374 -0.71308,-22.67681 0.0651,-8.52606 -0.97823,-16.87401 1.66241,-25 l 1.62482,-5 0.61259,-8 c 0.33693,-4.4 0.86419,-9.575 1.1717,-11.5 0.3075,-1.925 1.45213,-6.425 2.54362,-10 1.09149,-3.575 2.91024,-9.65 4.04168,-13.5 1.13143,-3.85 2.43319,-7.9 2.89279,-9 0.45959,-1.1 1.55082,-4.475 2.42495,-7.5 1.68447,-5.32556 4.50159,-10.65191 4.48784,-15.69398 l 2.02723,-2.33742 c 3.3494,-3.58223 3.70313,-9.33155 4.97672,-13.4686 1.02,-3.3 3.16504,-9.825 4.76676,-14.5 1.60172,-4.675 3.58852,-9.85 4.4151,-11.5 0.82658,-1.65 2.07207,-5.25 2.76776,-8 0.69569,-2.75 2.34074,-7.29485 3.65566,-10.09967 2.968,-9.36025 7.30232,-17.8416 8.62117,-27.09794 -1.04076,-0.85485 -1.31064,-1.59502 -3.45784,-1.3269 -13.55613,5.32975 -28.80805,8.62231 -39.77256,13.80654 -5.41425,1.83903 -8.62399,5.92804 -12.5,9.91087 -13.18824,12.41374 -25.39028,29.09029 -37.90004,38.47264 -2.14502,1.55895 -4.28252,2.83446 -4.75,2.83446 -0.46748,0 -0.84523,-0.3375 -0.83945,-0.75 0.006,-0.4125 2.0317,-3.45 4.50205,-6.75 9.33143,-11.8603 19.12372,-20.30649 29.22814,-31.68063 l 1.46309,-1.68062 -1.23076,-1.9914 c -3.40848,0.91452 -6.89484,2.04963 -9.97303,3.4904 -8.27338,4.11403 -17.01435,6.90614 -24.8362,10.519 -4.76509,2.21039 -9.7888,4.48188 -11.1638,5.04775 -1.375,0.56586 -3.31351,1.4464 -4.3078,1.95674 -0.99429,0.51034 -4.59429,2.31681 -8,4.01437 l -6.1922,3.08647 -4.0283,3.85959 c -2.91171,3.51533 -4.10888,3.85275 -8.33914,3.4941 -3.724035,-0.41542 -3.666384,-0.29855 -5.95475,-2.00939 -1.72053,-1.481 -1.693232,-1.565 -0.56161,-3.37514 2.304244,-3.07406 6.290762,-3.09076 9.8838,-4.02862 9.8771,-4.71703 19.50164,-10.00172 29.5,-14.46177 10.13606,-4.23399 18.85517,-8.4698 29.5,-12.3577 8.87805,-4.42188 22.29402,-7.51751 28.53641,-12.66911 13.13794,-14.64736 25.90834,-32.42783 36.32475,-46.21404 6.98449,-8.91568 12.48822,-18.11582 19.40544,-27.08791 9.1301,-12.78275 18.58391,-27.35708 26.86474,-39.91209 10.13587,-16.645557 19.88472,-35.096226 27.33049,-50.999999 3.08125,-5.785231 5.07702,-11.22817 6.88183,-17.18875 l 2.1767,-7.18875 3.1225,-3.1225 3.73911,0 1.17266,1.89741 c -3.15702,9.337356 -5.45653,18.211594 -8.21146,25.55259 -0.46374,0.5225 -0.84317,2.10987 -0.84317,3.52749 l -0.37761,2.640435 -1.17423,2.152615 c -0.71244,1.30606 -2.24732,4.58119 -3.09736,7.47251 -0.85004,2.89132 -2.11495,5.931952 -2.8109,6.756952 -0.69596,0.825 -1.55749,3.04547 -1.91451,4.93438 l -0.52327,2.867977 -1.46414,2.132023 c -0.64128,0.933811 -2.9807,5.678217 -4.98812,10.704727 -2.3497,4.54782 -3.22331,10.28744 -5.10459,14.57696 -3.8419,8.95349 -6.46008,17.10184 -10.46931,26.28393 -6.94316,20.51291 -18.07978,41.29049 -23.32113,60.56284 2.58689,0.36784 5.48704,-0.0475 8.74517,-1.35774 4.84492,-3.80381 12.37821,-6.8639 15.87413,-2.20096 0.47752,1.09391 0.96918,2.18076 0.79288,3.60158 -3.59107,5.05266 -12.10695,5.39591 -17.66701,5.00961 -4.91945,0.58799 -7.39103,2.26391 -10.97136,3.44706 -11.69892,26.69977 -20.59037,48.10386 -27.45718,72.43763 -0.70501,2.475 -2.59365,6.21786 -3.67665,8.58786 l -1.95427,4.27664 c -2.13564,6.87827 -3.49848,8.02946 -4.47924,13.85 -2.22129,5.3372 -4.29149,11.29459 -4.60045,13.23864 -1.39487,4.95074 -3.4966,8.85648 -3.97454,14.00186 0.10306,3.65448 -1.18378,6.75501 -2.41212,10.11559 -1.46599,2.91083 -1.97419,5.54234 -1.97419,8.69739 0.38986,2.63333 -0.50519,4.50533 -1.49336,6.87035 l -1.49336,3.57412 c 0.40408,2.11971 0.40173,3.21804 -0.66037,5.45625 -1.73906,2.4539 -1.67064,4.76344 -1.47721,7.33128 -1.0205,0.65662 -1.19267,9.40604 -1.13866,12.18212 l 0.23705,12.18413 c 1.2125,8.48821 2.73945,8.86442 4.78719,19.7264 -0.24113,3.11343 0.25721,5.97551 -1.74916,8.39305 -3.13394,2.38113 -5.78375,1.1774 -6.76144,-2.30889 z m 15.16641,-212.17681 c 20.41747,-6.42292 24.94641,-7.2771 41.5593,-13.05773 3.35983,-9.67609 6.74859,-18.64367 11.02361,-27.98658 0.27031,-2.87004 0.45929,-4.63406 1.8449,-5.95569 2.45378,-7.77231 5.30941,-16.23303 8.10851,-23 4.46857,-10.31483 9.07541,-22.06183 12.8775,-30.71229 3.27712,-6.7821 2.02102,-5.46011 3.73454,-11.69246 l 0.72402,-2.88472 -1.89474,1.98248 c -1.0421,1.09037 -2.47012,2.843 -3.17338,3.89474 -0.70325,1.05174 -2.05325,3.17156 -3,4.71071 -5.12958,6.04268 -8.63445,13.87059 -13.22135,19.70154 -11.32141,16.63463 -21.21836,30.2959 -32.82119,47 -8.18026,12.47648 -17.584,21.00569 -24.80308,32.23013 -1.30665,2.05157 -2.37573,4.18907 -2.37573,4.75 l 0,1.01987 z m 212.32233,140.8013 -1.26057,1.04618 -1.73943,-0.97343 -1.73942,-0.97343 0,-5.82458 0,-5.82459 1.39542,-3.95503 c 0.76747,-2.17526 1.61333,-5.49434 1.87968,-7.37572 0.26635,-1.88139 1.41322,-6.1207 2.5486,-9.4207 1.13539,-3.3 3.93411,-11.175 6.21939,-17.5 2.28528,-6.325 4.80283,-13.24432 5.59456,-15.37627 0.79173,-2.13195 2.99715,-6.8862 4.90093,-10.565 1.90378,-3.67879 3.46142,-7.02552 3.46142,-7.43716 0,-0.41164 2.31907,-5.5574 5.15349,-11.43501 l 5.15348,-10.68656 0.37044,-3.21001 0.37043,-3.21002 -1.89722,-4.28998 c -2.33614,-7.57423 -4.32787,-12.75823 -8.71447,-19.28999 -5.56252,-1.35511 -7.19789,0.31135 -11.43037,3.64062 l -4.18381,7.17969 c -2.0762,3.47459 -3.95742,5.98262 -6.55899,10.17969 -2.96846,10.61998 -4.75952,19.69698 -11.37132,27.53446 l -4.94374,5.94051 c -3.31122,0.86159 -4.59804,1.99996 -8.00667,3.05924 -5.47895,-0.35696 -11.00876,-0.79414 -16.3347,-2.16544 -6.44795,-1.33157 -15.61756,-6.4905 -17.70142,-6.86877 -4.60015,1.80694 -8.08218,5.05632 -12.97613,6.78137 -1.96405,0.67024 -4.96722,1.21863 -6.67371,1.21863 -9.27661,-0.91662 -16.07221,-2.61611 -24.66012,-4.41655 l -6.48549,-5.69433 c -2.10887,-8.0109 -4.11725,-15.25515 -5.28186,-23.01471 -0.18717,-8.85807 -0.0536,-17.71501 0.0394,-26.57304 l 4.26656,-22.6077 c 4.73262,-11.19708 10.70043,-24.68294 16.86625,-34.96339 -0.13065,-1.46817 0.15606,-2.87261 0.40051,-4.3102 1.39662,-1.05279 2.74476,-2.16604 4.09949,-3.2715 -0.98849,-0.33706 -1.92959,-0.7692 -2.86628,-1.22495 1.38887,-3.88517 3.38981,-7.44543 5.36628,-11.04682 l 0,-3.47681 2.40907,-2.40907 1.09093,-9.43784 4.79608,-2.38513 c 1.22965,0.76794 2.45931,1.53586 3.68897,2.30379 l -0.66395,2.01413 c -0.62662,2.0254 -0.54186,3.92252 -0.40997,5.9845 0.67225,0.22407 1.3445,0.44816 2.01675,0.67225 l -0.91282,1.67868 c -0.50205,0.92328 -2.13375,4.51675 -3.62599,7.98549 l -2.71318,6.30681 -3.17589,2.38639 c -0.20024,2.83881 -1.60318,4.74603 -3.5,6.64286 l 0,2.40813 0,2.40813 c -6.95866,13.69993 -11.7551,29.76705 -17.8529,41.60044 -0.4566,12.34226 -0.43653,25.59815 -0.45214,35.94044 l 1.90567,13 c 2.36414,5.19303 5.77961,9.26107 9.98409,10.82607 2.70342,1.00434 6.87972,2.19344 9.28067,2.64245 7.93104,0.8945 14.1753,-1.00916 19.13461,-5.96852 l 0,-1.44098 c -0.93296,-2.60059 -2.52672,-4.96397 -3.28102,-7.29383 -0.83664,-2.62085 -1.80658,-6.13728 -2.1554,-7.81428 -0.34883,-1.677 -0.65758,-5.502 -0.68611,-8.5 -0.077,-3.52808 0.0134,-5.57472 1.52914,-8.45091 1.83988,-5.14483 3.62143,-9.22094 6.09336,-13.98659 3.08806,-3.12427 5.90911,-6.42655 9.26417,-9.37282 2.79338,-0.97125 4.96374,-1.6755 7.84613,-2.11274 l 3.34318,0.95881 c 3.7857,1.22828 6.70928,3.2653 9.93661,5.4767 l 2.10991,4.63075 0,9.83804 c -1.56091,3.53479 -3.00807,7.28201 -4.06395,10.81785 l -1.25617,4.25 c -1.31401,-0.044 -1.3769,0.37388 -1.67988,1.28272 0,0.7055 -1.6875,4.34617 -3.75,8.09038 -2.0625,3.74421 -4.30587,7.77949 -4.98526,8.96728 -1.01746,1.7695 -1.24705,3.46028 -1.2647,5.41473 2.50301,2.04577 5.74655,3.1683 8.26772,4.10448 3.92643,1.47357 6.48195,2.15261 10.13488,2.29078 5.13945,0.0133 7.42926,-1.42648 11.70764,-3.65037 l 1.85307,-3.5 c 6.25991,-11.48965 10.16534,-25.28859 15.52815,-34.98489 1.9297,-3.41398 3.50854,-6.38296 3.50854,-6.59772 2.42104,-2.83602 4.60102,-4.68886 7.5,-7.39715 5.92669,-2.63897 9.36313,-1.77861 15.2292,-0.0211 l 5.58059,4.38969 6.75077,14.61116 1.96543,0 1.9226,-4.25 c 2.92949,-6.41714 4.7549,-12.74642 7.58209,-19.25 3.3809,-7.79755 6.03295,-14.01542 9.45094,-22 l 1.77436,-9 5.39063,-11.5 2.71861,0 c 0.41262,1.30001 0.82522,2.60003 1.23783,3.90004 -1.23849,2.3679 -2.60653,4.81962 -3.10306,7.41885 -3.35973,11.82402 -7.47921,24.66254 -12.05766,35.32275 -1.68873,3.84418 -2.48803,7.77782 -3.24773,11.85836 -1.60942,2.73353 -3.70735,5.40544 -4.69461,8.39679 -0.56422,0.83552 -0.90199,1.2372 -1.8292,1.85779 l -0.61471,9.75055 4.71363,5.49487 4.99421,0 6.26747,-3.87351 4.88674,-9.31324 4.88675,-9.31325 5.57779,-7.43824 c 3.06778,-4.09103 8.28668,-10.17891 11.59755,-13.52862 3.31087,-3.34971 7.76664,-7.42751 9.90171,-9.06176 4.38732,-3.22923 8.96332,-5.25969 13.87455,-7.47138 l 8.61331,0 5.38708,2.04816 -1.07932,8.04689 c 3.09631,4.76064 3.46478,5.39146 6.82244,10.35934 l 0,17.42758 1.73271,1.07087 3.54373,-3.91579 1.57645,-17.29593 c 2.05301,-4.17023 4.106,-8.34046 6.15899,-12.51069 l 10.14388,-9.23142 4.66651,-1.17122 c 2.94121,1.30105 5.88242,2.60208 8.82363,3.90311 l 2.59674,6.2691 2.36503,0 6.74118,-6.95514 9.15115,-2.92715 5.73349,0.73181 5.76651,5.52466 c -0.12313,4.55198 0.82003,9.25787 1.65425,13.0974 l 1.65424,7.52842 c 1.34959,-0.23418 1.64029,0.10188 2.67111,-3.25 0.67223,-1.7875 1.59258,-4.15 2.04521,-5.25 0.45263,-1.1 2.8046,-6.275 5.2266,-11.5 l 4.40364,-9.5 1.80852,-1.5 c 0.99469,-0.825 3.6598,-2.23204 5.92248,-3.12675 l 4.11395,-1.62675 0.26861,-8.37325 c 0.14774,-4.60529 0.56901,-9.04825 0.93617,-9.87325 0.36715,-0.825 0.81787,-4.26805 1.73138,-7.48312 L 649.5,150.31423 c 2.99054,-1.41216 5.02028,-1.23478 8.12423,-0.86346 2.71803,0.24723 3.52008,0.45977 4.7215,2.70463 0.59514,1.11203 1.32771,3.00516 1.62793,4.20697 0.30023,1.2018 0.56722,6.4601 0.59331,11.6851 0.44741,4.88201 0.0947,9.32645 -1.1715,13.9754 -0.7227,2.06019 -1.0002,4.33643 -2.87007,5.5246 l -0.691,6.5 c -0.38005,3.575 -0.73348,7.0377 -0.7854,7.69489 -0.0519,0.65718 0.9931,2.79536 2.32226,4.7515 l 2.41667,3.55662 1.68745,0.54603 1.68745,0.54603 2.08265,-1.29753 2.08265,-1.29754 1.9799,-5.28751 1.9799,-5.28752 0,-2.75104 0,-2.75105 -2,-3.92288 c -1.1,-2.15759 -2,-4.67263 -2,-5.589 l 0,-1.66611 1.45201,-1.20506 1.45201,-1.20507 2.29799,0.83262 2.29799,0.83262 5.44268,0 5.44269,0 2.15306,3.16899 2.15307,3.169 0.58876,8.331 c 0.32381,4.58206 0.89137,9.11851 1.26124,10.08101 l 0.67248,1.75 1.86993,0 1.87,0 1.4447,-2.25 c 0.7947,-1.2375 1.7738,-3.825 2.176,-5.75 0.4021,-1.925 0.7749,-7.59282 0.8283,-12.59514 l 0.097,-9.09515 1.3724,-1.65485 1.3725,-1.65486 3.8545,0 3.8545,0 1.5496,2.36502 1.5496,2.36502 -1.1802,2.88498 c -0.6491,1.58674 -1.3535,3.55998 -1.5652,4.38498 -0.2117,0.825 -0.6416,3.11163 -0.9554,5.0814 l -0.5704,3.5814 2.6494,5.60047 2.6495,5.60047 3.4944,3.06813 3.4944,3.06813 c 2.1978,-2.16383 2.49621,-2.99489 3.77093,-4.19065 1.54192,-2.7864 3.14302,-5.53956 4.72542,-8.30308 -1.55793,-4.15317 -1.13223,-9.31476 -0.12258,-12.80685 0.4913,-1.63109 2.73635,-5.92684 4.98899,-9.54609 2.25264,-3.61924 5.2548,-7.71415 6.67148,-9.09978 1.41667,-1.38565 4.04486,-4.0355 5.84042,-5.88857 1.79556,-1.85308 4.38434,-4.11856 5.75285,-5.03443 l 2.48829,-1.6652 c 7.07387,-2.01885 13.60014,-3.40508 20.82733,-2.45484 l 1.31888,4.41576 c 1.67288,6.08997 1.61296,10.83169 1.72535,17.85816 -0.73693,8.32728 -2.64151,13.06537 -5.03548,16.15504 -2.02932,2.06903 -3.04175,5.22946 -5.94431,5.95956 -0.1598,6.44005 7.51277,10.57207 11.58757,12.59457 5.49041,1.61097 10.2749,0.84518 15.43921,-0.88015 6.51426,-4.24866 13.23447,-8.7644 14.85841,-16.72029 1.02371,-2.97483 0.69851,-4.16443 -0.72029,-6.73384 -0.53927,-1.31536 -2.09255,-2.26211 -0.8971,-3.33987 0.69974,-0.85884 1.48978,-0.44158 2.4917,-0.29138 1.80949,0.63714 1.83522,0.64085 3.68708,2.06313 2.21957,3.29373 2.05622,6.18828 1.38982,11.5875 -0.54413,1.50676 -1.70393,4.85758 -2.57669,6.29861 -1.68632,2.34703 -3.96775,4.42402 -6.48815,6.31004 -2.43621,1.82302 -5.87313,4.26077 -7.09123,5.0083 -8.70102,5.07271 -19.59832,3.34619 -28.04365,-1.06408 -5.11225,-3.12144 -7.7559,-5.31137 -10.97382,-9.43096 l -3.50231,1.18822 -4.113,-0.49986 -3.68733,-2.68061 -3.68733,-2.68061 -3.79163,-6.04037 c -1.53179,-1.49426 -2.25634,-5.84594 -4.4128,-5.88413 -0.32684,0.0822 -0.50297,1.29555 -0.35865,2.68805 0.14442,1.39248 0.17765,4.1718 0.074,6.17623 -0.10369,2.00443 -0.35599,4.31113 -0.56058,5.12599 l -0.37212,1.48159 c -0.85348,3.13699 -1.63077,4.48791 -3.3879,8.06791 l -8.78698,7.24307 -5.86728,2.3207 c -5.50301,-1.46566 -7.64039,-5.00925 -10.7861,-9.25173 -0.76667,-0.0183 -1.53333,-0.0367 -2.3,-0.055 l -7.254,7.25402 -4.7215,-0.53218 -4.72146,-0.53218 -3.32542,-3.84483 -3.32541,-3.84483 -0.55109,-2.75 -0.55109,-2.75 -1.125,0.004 -1.125,0.004 -1.75452,4.24625 -1.75453,4.24625 -4.07328,4.75 -4.07328,4.75 -4.27617,0 -4.27617,0 -2.6138,-2.42238 c -1.43759,-1.33231 -3.51178,-2.7074 -4.60931,-3.05574 l -1.99552,-0.63335 -1.40114,3.30573 -1.40113,3.30574 -3.60892,3.25 c -1.8027,1.75825 -2.90009,3.25 -5.37123,3.25 -0.96926,0 -4.13219,-1.19906 -7.02874,-2.66458 -2.89654,-1.46551 -5.41041,-2.47801 -5.58638,-2.25 -2.11006,3.4772 -3.62632,6.18833 -5.76019,9.91458 -3.85586,0.0961 -6.53722,-1.30429 -9.78345,-2.98298 -4.32508,-6.84158 -5.13455,-8.12046 -6.96755,-14.51702 l -0.67527,-6.20468 -0.67527,-6.20468 -2.57088,-2.13363 -5.47796,2.08272 -5.67377,6.07379 -2.41933,5.19324 -2.41933,5.19324 -0.68358,6.5 c -0.37597,3.575 -1.18834,8.21835 -1.80527,10.31855 l -1.12168,3.81855 c -1.18368,1.32311 -2.36736,1.97869 -3.95156,2.76778 -4.79357,-2.86614 -5.4019,-3.65583 -7.03129,-5.64205 1.76253,-7.45952 4.0317,-18.08511 5.04164,-25.52731 l -1.84404,-8.6461 -4.0448,-1.28377 -6.05862,5.69435 c -3.93782,7.40561 -4.40452,15.33297 -5.29761,23.19954 l -0.58737,5.19953 -4.44336,6.60093 c -4.1822,2.08511 -8.4079,3.0763 -12.92534,3.75781 l -7,7.64887 -12.43974,5.09332 -7.89445,0 -8.99593,-3.85611 -5.16988,-7.60816 0,-8.40553 c 1.48689,-3.63212 2.70201,-7.58148 3.62029,-11.02251 l 1.42843,-5.39231 -0.61753,-0.60769 -0.61753,-0.60769 -3.39831,4 c -4.98453,7.1409 -10.22705,13.59454 -13.41535,21.42232 0,0.53379 -1.53277,3.58214 -3.40616,6.7741 -3.6175,6.46722 -8.36274,9.85833 -13.94667,13.06278 -7.28615,-0.77287 -11.26018,-5.7592 -17.50069,-5.7592 -4.01528,7.70495 -6.32901,14.73147 -9.68534,22.49944 -0.71976,1.65 -2.69297,6.22543 -4.3849,10.16761 -1.69193,3.94219 -3.07624,7.47272 -3.07624,7.84563 0,0.37291 -0.90977,1.95567 -2.02171,3.51725 -1.11194,1.56158 -1.92098,3.20605 -1.79786,3.65437 0.12312,0.44833 -0.76711,2.70971 -1.97829,5.0253 -1.21118,2.31559 -2.20214,4.91721 -2.20214,5.78139 l 0,1.57122 -1.5,0.5756 -1.5,0.57561 0,2.8555 0,2.85549 -1.90864,5.28752 c -1.04976,2.90813 -2.45582,7.76251 -3.12459,10.78751 -0.66878,3.025 -1.60989,6.80465 -2.09136,8.39922 -0.48148,1.59458 -0.87541,4.57698 -0.87541,6.62756 l 0,3.72833 -1.26058,1.04619 z m -55.84633,-105.8013 c 2.53565,-3.81853 5.07128,-7.63707 7.60691,-11.45561 l 5.67317,-14.04439 1.06709,-10.11688 c -0.81841,-1.61944 -1.72583,-2.48236 -3.25627,-3.25627 -4.34943,0.65363 -5.73924,1.15427 -8.5051,2.89798 -2.04569,1.38862 -3.69088,2.82173 -5.46957,4.69986 -1.90069,3.08043 -3.13386,6.42787 -4.36702,9.77531 -0.88875,7.91789 1.07448,15.24102 4.39841,21.5 z m 164.80683,-7.99999 8.30008,-6.01254 c 0.0865,-2.08308 -1.41438,-3.98222 -2.40167,-5.30418 -1.32093,-1.7508 -3.12093,-4.92574 -4,-7.0554 -2.76019,-5.51019 -1.58878,-11.24435 -0.0983,-16.96658 0.825,-3.16739 1.5,-5.96193 1.5,-6.2101 -1.4827,-1.08098 -3.63471,1.34236 -4.58169,2.21208 -3.37162,3.33518 -5.59972,6.96172 -8.11052,10.92082 l -2.11754,6.55453 c -1.61677,4.77626 -2.61237,9.64893 -3.40477,14.60433 l 3.57387,5.45441 c 3.63925,1.7365 8.05845,1.74772 11.34054,1.80263 z m 117.58812,-33.50001 3.99474,-5.35572 0.21722,-16.64428 c -3.39584,0.37439 -5.72878,2.67533 -8.3362,4.6736 l -0.76668,5.1632 c -0.42167,2.83976 -0.6507,5.78275 -0.50895,6.53997 0.54958,2.2645 1.28758,4.0855 2.11766,6.26876 1.09407,-0.21519 2.18814,-0.43036 3.28221,-0.64553 z m 120.93698,-19.51206 c 0.18652,-0.0444 0.42631,-0.96982 0.53474,-2.05138 -1.16646,-10.24842 -0.58232,-19.87847 2.21648,-30.05603 l -0.96683,-1.01254 -0.96691,-1.01253 c -6.11503,6.82913 -10.45634,9.9623 -12.22716,18.81612 1.9959,5.42146 3.69313,11.58766 9.21208,14.47034 1.02281,0.51207 2.05289,0.8805 2.19732,0.84609 z m 11.0788,-14.81652 1.32468,-3.57023 -0.11524,-5.13848 -0.11525,-5.13849 -0.71767,-0.3064 -0.71777,-0.30639 -1.25224,0.78834 -1.25234,0.78834 c 1.58634,5.30782 -0.34218,9.80359 -0.0759,14.65711 l 0.13694,2.16371 c 1.665,-0.38756 2.34903,-2.78067 2.78479,-3.93751 z m -89.7448,16.82858 c 0.24254,0 0.44098,-0.70156 0.44098,-1.55902 l 0,-1.55901 -1.01631,0.62811 -1.01631,0.62812 0.57533,0.9309 c 0.31643,0.51199 0.77377,0.9309 1.01631,0.9309 z m 22.94095,-15 c 0.275,0 0.5,-0.225 0.5,-0.5 0,-0.275 -0.225,-0.5 -0.5,-0.5 -0.275,0 -0.5,0.225 -0.5,0.5 0,0.275 0.225,0.5 0.5,0.5 z m -51.33102,-14.5 0.33105,-6 -1,-0.24422 -1,-0.24421 -0.0922,7.03645 -0.53722,9.30603 c 1.85873,-3.30085 2.07559,-5.81633 2.29837,-9.85405 z m -317.16895,-25.5 c -0.60846,-1.49855 -1.46475,-0.89105 -2,0 0.60846,1.49855 1.46475,0.89105 2,0 z M 86.35051,316.76307 c -3.691913,-2.07164 -3.870258,-1.93181 -4.56254,-4.71351 0.647661,-2.81028 1.212711,-2.64454 4,-3.11733 7.915237,-1.19645 14.44786,-1.94489 22.47989,-2.91847 1.82578,-0.75921 3.89297,-1.69652 5.02011,-3.12681 -0.15859,-1.17209 0.51096,-0.83948 1.5,-0.83948 1.22163,-0.0133 1.5,-0.29206 1.5,0.92857 0,0.51072 -0.70714,1.63572 -1.57143,2.5 -1.10825,1.42156 -1.66653,1.57143 -3.34501,1.57143 -1.88513,-0.27809 -1.48103,-2.75476 -3.49988,1.90753 -6.71973,5.33423 -13.673942,6.38949 -21.52114,7.80807 z m 30.65029,-14.40817 2.27839,-3.08168 c 1.65756,-3.13428 4.26176,-4.11069 7.28484,-5.67912 2.75355,-1.4286 5.11544,-2.47351 5.24864,-2.32204 -0.17766,3.45099 -2.01384,5.04671 -4.7871,7.16198 -2.63296,1.92383 -6.25692,3.16729 -10.02477,3.92086 z M 710.28874,156.04747 c -0.585,0 -1.31,-0.64227 -1.6112,-1.42727 -0.3013,-0.785 -0.3996,-2.4677 -0.2186,-3.73933 l 0.329,-2.31206 4.3771,-2.28773 4.377,-2.28774 1.873,0.59445 1.8729,0.59446 0,1.46779 c 0,0.80729 -0.7669,2.63836 -1.7044,4.06905 l -1.7044,2.60124 -3.2634,1.36357 c -1.795,0.74996 -3.7421,1.36357 -4.327,1.36357 z m -367.50077,-19 c -0.80105,-0.49247 -0.2954,-0.57226 0,-1 0.80105,0.49247 0.2954,0.57226 0,1 z"
     id="path3342"
     inkscape:connector-curvature="0"
     inkscape:export-xdpi="107.3559"
     inkscape:export-ydpi="107.3559"
     sodipodi:nodetypes="ccccsssssccccsssccccccscccccccssscccccccccccccccccccscsssscsccccccccccscccccccccccccccccccccccssccccsccccccccsssssssscccccccccccccccccccccccccccccccccsscccccccccccccsccccccccccccscccccccccccccccccccccccccccccccsscccccccccccccccccccccccsscsscssscccscccscscccccccccsscccccccccsscccccccccccccsscccccccccssscccccccccccccccccccccccccccsccccccccccccccccccccccsscccccscccccccccccsscccccccccccccccccccccccccccsssssscccccsssscccccccccccccccccccccccccsccscccsccccccsscscccccccccsscccssscssscscccccsccccccccccccccccccccsccccccscccssccc" />
</svg>
